<svg xmlns="http://www.w3.org/2000/svg" width="1100" height="560" viewBox="0 0 1100 560">
<style>
text { font-family: -apple-system, BlinkMacSystemFont, "Segoe UI", sans-serif; fill: #111827; }
.axis { stroke: #6b7280; stroke-width: 1; }
.grid { stroke: #e5e7eb; stroke-width: 1; }
.label { font-size: 12px; }
.title { font-size: 20px; font-weight: 600; }
</style>
<text x="90" y="30" class="title">Few-shot recovery accuracy</text>
<line x1="90" y1="450.0" x2="1060" y2="450.0" class="grid" />
<text x="80" y="454.0" text-anchor="end" class="label">0.000</text>
<line x1="90" y1="372.0" x2="1060" y2="372.0" class="grid" />
<text x="80" y="376.0" text-anchor="end" class="label">0.200</text>
<line x1="90" y1="294.0" x2="1060" y2="294.0" class="grid" />
<text x="80" y="298.0" text-anchor="end" class="label">0.400</text>
<line x1="90" y1="216.0" x2="1060" y2="216.0" class="grid" />
<text x="80" y="220.0" text-anchor="end" class="label">0.600</text>
<line x1="90" y1="138.0" x2="1060" y2="138.0" class="grid" />
<text x="80" y="142.0" text-anchor="end" class="label">0.800</text>
<line x1="90" y1="60.0" x2="1060" y2="60.0" class="grid" />
<text x="80" y="64.0" text-anchor="end" class="label">1.000</text>
<line x1="90" y1="60" x2="90" y2="450" class="axis" />
<line x1="90" y1="450" x2="1060" y2="450" class="axis" />
<text x="90.0" y="515" text-anchor="end" transform="rotate(-25 90.0,515)" class="label">base</text>
<text x="413.3" y="515" text-anchor="end" transform="rotate(-25 413.3,515)" class="label">1-shot</text>
<text x="736.7" y="515" text-anchor="end" transform="rotate(-25 736.7,515)" class="label">5-shot</text>
<text x="1060.0" y="515" text-anchor="end" transform="rotate(-25 1060.0,515)" class="label">10-shot</text>
<polyline fill="none" stroke="#2563eb" stroke-width="3" points="90.0,89.0 413.3,89.4 736.7,89.7 1060.0,89.8" />
<circle cx="90.0" cy="89.0" r="4" fill="#2563eb" />
<text x="90.0" y="79.0" text-anchor="middle" class="label">0.926</text>
<circle cx="413.3" cy="89.4" r="4" fill="#2563eb" />
<text x="413.3" y="79.4" text-anchor="middle" class="label">0.925</text>
<circle cx="736.7" cy="89.7" r="4" fill="#2563eb" />
<text x="736.7" y="79.7" text-anchor="middle" class="label">0.924</text>
<circle cx="1060.0" cy="89.8" r="4" fill="#2563eb" />
<text x="1060.0" y="79.8" text-anchor="middle" class="label">0.923</text>
<line x1="90" y1="538" x2="108" y2="538" stroke="#2563eb" stroke-width="3" />
<text x="114" y="542" class="label">simple_bias</text>
<polyline fill="none" stroke="#dc2626" stroke-width="3" points="90.0,90.6 413.3,90.4 736.7,90.5 1060.0,90.4" />
<circle cx="90.0" cy="90.6" r="4" fill="#dc2626" />
<text x="90.0" y="80.6" text-anchor="middle" class="label">0.921</text>
<circle cx="413.3" cy="90.4" r="4" fill="#dc2626" />
<text x="413.3" y="80.4" text-anchor="middle" class="label">0.922</text>
<circle cx="736.7" cy="90.5" r="4" fill="#dc2626" />
<text x="736.7" y="80.5" text-anchor="middle" class="label">0.922</text>
<circle cx="1060.0" cy="90.4" r="4" fill="#dc2626" />
<text x="1060.0" y="80.4" text-anchor="middle" class="label">0.922</text>
<line x1="250" y1="538" x2="268" y2="538" stroke="#dc2626" stroke-width="3" />
<text x="274" y="542" class="label">regmean_bias</text>
<polyline fill="none" stroke="#0891b2" stroke-width="3" points="90.0,89.0 413.3,165.6 736.7,105.2 1060.0,100.4" />
<circle cx="90.0" cy="89.0" r="4" fill="#0891b2" />
<text x="90.0" y="79.0" text-anchor="middle" class="label">0.926</text>
<circle cx="413.3" cy="165.6" r="4" fill="#0891b2" />
<text x="413.3" y="155.6" text-anchor="middle" class="label">0.729</text>
<circle cx="736.7" cy="105.2" r="4" fill="#0891b2" />
<text x="736.7" y="95.2" text-anchor="middle" class="label">0.884</text>
<circle cx="1060.0" cy="100.4" r="4" fill="#0891b2" />
<text x="1060.0" y="90.4" text-anchor="middle" class="label">0.896</text>
<line x1="410" y1="538" x2="428" y2="538" stroke="#0891b2" stroke-width="3" />
<text x="434" y="542" class="label">simple_ridge</text>
<polyline fill="none" stroke="#d97706" stroke-width="3" points="90.0,90.6 413.3,167.5 736.7,116.3 1060.0,107.7" />
<circle cx="90.0" cy="90.6" r="4" fill="#d97706" />
<text x="90.0" y="80.6" text-anchor="middle" class="label">0.921</text>
<circle cx="413.3" cy="167.5" r="4" fill="#d97706" />
<text x="413.3" y="157.5" text-anchor="middle" class="label">0.724</text>
<circle cx="736.7" cy="116.3" r="4" fill="#d97706" />
<text x="736.7" y="106.3" text-anchor="middle" class="label">0.856</text>
<circle cx="1060.0" cy="107.7" r="4" fill="#d97706" />
<text x="1060.0" y="97.7" text-anchor="middle" class="label">0.878</text>
<line x1="570" y1="538" x2="588" y2="538" stroke="#d97706" stroke-width="3" />
<text x="594" y="542" class="label">regmean_ridge</text>
<polyline fill="none" stroke="#7c3aed" stroke-width="3" points="90.0,89.0 413.3,93.3 736.7,91.8 1060.0,92.0" />
<circle cx="90.0" cy="89.0" r="4" fill="#7c3aed" />
<text x="90.0" y="79.0" text-anchor="middle" class="label">0.926</text>
<circle cx="413.3" cy="93.3" r="4" fill="#7c3aed" />
<text x="413.3" y="83.3" text-anchor="middle" class="label">0.915</text>
<circle cx="736.7" cy="91.8" r="4" fill="#7c3aed" />
<text x="736.7" y="81.8" text-anchor="middle" class="label">0.918</text>
<circle cx="1060.0" cy="92.0" r="4" fill="#7c3aed" />
<text x="1060.0" y="82.0" text-anchor="middle" class="label">0.918</text>
<line x1="730" y1="538" x2="748" y2="538" stroke="#7c3aed" stroke-width="3" />
<text x="754" y="542" class="label">simple_lastlayer_tune</text>
<polyline fill="none" stroke="#b45309" stroke-width="3" points="90.0,90.6 413.3,95.3 736.7,93.1 1060.0,91.8" />
<circle cx="90.0" cy="90.6" r="4" fill="#b45309" />
<text x="90.0" y="80.6" text-anchor="middle" class="label">0.921</text>
<circle cx="413.3" cy="95.3" r="4" fill="#b45309" />
<text x="413.3" y="85.3" text-anchor="middle" class="label">0.909</text>
<circle cx="736.7" cy="93.1" r="4" fill="#b45309" />
<text x="736.7" y="83.1" text-anchor="middle" class="label">0.915</text>
<circle cx="1060.0" cy="91.8" r="4" fill="#b45309" />
<text x="1060.0" y="81.8" text-anchor="middle" class="label">0.918</text>
<line x1="890" y1="538" x2="908" y2="538" stroke="#b45309" stroke-width="3" />
<text x="914" y="542" class="label">regmean_lastlayer_tune</text>
<polyline fill="none" stroke="#7c3aed" stroke-width="3" points="90.0,69.9 413.3,69.9 736.7,69.9 1060.0,69.9" />
<circle cx="90.0" cy="69.9" r="4" fill="#7c3aed" />
<text x="90.0" y="59.9" text-anchor="middle" class="label">0.975</text>
<circle cx="413.3" cy="69.9" r="4" fill="#7c3aed" />
<text x="413.3" y="59.9" text-anchor="middle" class="label">0.975</text>
<circle cx="736.7" cy="69.9" r="4" fill="#7c3aed" />
<text x="736.7" y="59.9" text-anchor="middle" class="label">0.975</text>
<circle cx="1060.0" cy="69.9" r="4" fill="#7c3aed" />
<text x="1060.0" y="59.9" text-anchor="middle" class="label">0.975</text>
<line x1="1050" y1="538" x2="1068" y2="538" stroke="#7c3aed" stroke-width="3" />
<text x="1074" y="542" class="label">centralized</text>
<text x="20" y="255.0" transform="rotate(-90 20,255.0)" class="label">Accuracy</text>
</svg>