<svg xmlns="http://www.w3.org/2000/svg" width="980" height="520" viewBox="0 0 980 520">
<style>
text { font-family: -apple-system, BlinkMacSystemFont, "Segoe UI", sans-serif; fill: #111827; }
.axis { stroke: #6b7280; stroke-width: 1; }
.grid { stroke: #e5e7eb; stroke-width: 1; }
.label { font-size: 12px; }
.title { font-size: 20px; font-weight: 600; }
</style>
<text x="90" y="30" class="title">Selective RegMean merge by layer set</text>
<line x1="90" y1="410.0" x2="950" y2="410.0" class="grid" />
<text x="80" y="414.0" text-anchor="end" class="label">-0.976</text>
<line x1="90" y1="322.5" x2="950" y2="322.5" class="grid" />
<text x="80" y="326.5" text-anchor="end" class="label">-0.488</text>
<line x1="90" y1="235.0" x2="950" y2="235.0" class="grid" />
<text x="80" y="239.0" text-anchor="end" class="label">+0.000</text>
<line x1="90" y1="147.5" x2="950" y2="147.5" class="grid" />
<text x="80" y="151.5" text-anchor="end" class="label">+0.488</text>
<line x1="90" y1="60.0" x2="950" y2="60.0" class="grid" />
<text x="80" y="64.0" text-anchor="end" class="label">+0.976</text>
<line x1="90" y1="235.0" x2="950" y2="235.0" class="axis" />
<line x1="90" y1="60" x2="90" y2="410" class="axis" />
<rect x="119.5" y="92.6" width="63.9" height="142.4" fill="#059669" rx="2" />
<text x="151.4" y="86.6" text-anchor="middle" class="label">+0.7940</text>
<text x="151.4" y="475" text-anchor="end" transform="rotate(-25 151.4,475)" class="label">simple_avg</text>
<rect x="242.3" y="80.8" width="63.9" height="154.2" fill="#059669" rx="2" />
<text x="274.3" y="74.8" text-anchor="middle" class="label">+0.8598</text>
<text x="274.3" y="475" text-anchor="end" transform="rotate(-25 274.3,475)" class="label">sample_weighted_avg</text>
<rect x="365.2" y="77.9" width="63.9" height="157.1" fill="#059669" rx="2" />
<text x="397.1" y="71.9" text-anchor="middle" class="label">+0.8760</text>
<text x="397.1" y="475" text-anchor="end" transform="rotate(-25 397.1,475)" class="label">regmean_hidden_layers</text>
<rect x="488.1" y="78.0" width="63.9" height="157.0" fill="#059669" rx="2" />
<text x="520.0" y="72.0" text-anchor="middle" class="label">+0.8757</text>
<text x="520.0" y="475" text-anchor="end" transform="rotate(-25 520.0,475)" class="label">regmean_last_layer</text>
<rect x="610.9" y="79.7" width="63.9" height="155.3" fill="#059669" rx="2" />
<text x="642.9" y="73.7" text-anchor="middle" class="label">+0.8660</text>
<text x="642.9" y="475" text-anchor="end" transform="rotate(-25 642.9,475)" class="label">regmean_middle_last</text>
<rect x="733.8" y="80.0" width="63.9" height="155.0" fill="#059669" rx="2" />
<text x="765.7" y="74.0" text-anchor="middle" class="label">+0.8644</text>
<text x="765.7" y="475" text-anchor="end" transform="rotate(-25 765.7,475)" class="label">regmean_all_layers</text>
<rect x="856.6" y="60.2" width="63.9" height="174.8" fill="#059669" rx="2" />
<text x="888.6" y="54.2" text-anchor="middle" class="label">+0.9751</text>
<text x="888.6" y="475" text-anchor="end" transform="rotate(-25 888.6,475)" class="label">centralized</text>
<text x="20" y="235.0" transform="rotate(-90 20,235.0)" class="label">Accuracy</text>
</svg>