<svg xmlns="http://www.w3.org/2000/svg" width="1100" height="560" viewBox="0 0 1100 560">
<style>
text { font-family: -apple-system, BlinkMacSystemFont, "Segoe UI", sans-serif; fill: #111827; }
.axis { stroke: #6b7280; stroke-width: 1; }
.grid { stroke: #e5e7eb; stroke-width: 1; }
.label { font-size: 12px; }
.title { font-size: 20px; font-weight: 600; }
</style>
<text x="90" y="30" class="title">Layerwise CKA to centralized</text>
<line x1="90" y1="450.0" x2="1060" y2="450.0" class="grid" />
<text x="80" y="454.0" text-anchor="end" class="label">0.000</text>
<line x1="90" y1="372.0" x2="1060" y2="372.0" class="grid" />
<text x="80" y="376.0" text-anchor="end" class="label">0.200</text>
<line x1="90" y1="294.0" x2="1060" y2="294.0" class="grid" />
<text x="80" y="298.0" text-anchor="end" class="label">0.400</text>
<line x1="90" y1="216.0" x2="1060" y2="216.0" class="grid" />
<text x="80" y="220.0" text-anchor="end" class="label">0.600</text>
<line x1="90" y1="138.0" x2="1060" y2="138.0" class="grid" />
<text x="80" y="142.0" text-anchor="end" class="label">0.800</text>
<line x1="90" y1="60.0" x2="1060" y2="60.0" class="grid" />
<text x="80" y="64.0" text-anchor="end" class="label">1.000</text>
<line x1="90" y1="60" x2="90" y2="450" class="axis" />
<line x1="90" y1="450" x2="1060" y2="450" class="axis" />
<text x="90.0" y="515" text-anchor="end" transform="rotate(-25 90.0,515)" class="label">simple_avg</text>
<text x="228.6" y="515" text-anchor="end" transform="rotate(-25 228.6,515)" class="label">sample_weighted_avg</text>
<text x="367.1" y="515" text-anchor="end" transform="rotate(-25 367.1,515)" class="label">sample_weighted_avg_last_layer_tune</text>
<text x="505.7" y="515" text-anchor="end" transform="rotate(-25 505.7,515)" class="label">sample_weighted_avg_hidden_head_tune</text>
<text x="644.3" y="515" text-anchor="end" transform="rotate(-25 644.3,515)" class="label">regmean_hidden_layers</text>
<text x="782.9" y="515" text-anchor="end" transform="rotate(-25 782.9,515)" class="label">regmean_hidden_layers_last_layer_tune</text>
<text x="921.4" y="515" text-anchor="end" transform="rotate(-25 921.4,515)" class="label">regmean_hidden_layers_hidden_head_tune</text>
<text x="1060.0" y="515" text-anchor="end" transform="rotate(-25 1060.0,515)" class="label">centralized</text>
<polyline fill="none" stroke="#2563eb" stroke-width="3" points="90.0,119.4 228.6,117.4 367.1,117.4 505.7,117.4 644.3,139.4 782.9,139.4 921.4,139.4 1060.0,60.0" />
<circle cx="90.0" cy="119.4" r="4" fill="#2563eb" />
<text x="90.0" y="109.4" text-anchor="middle" class="label">0.848</text>
<circle cx="228.6" cy="117.4" r="4" fill="#2563eb" />
<text x="228.6" y="107.4" text-anchor="middle" class="label">0.853</text>
<circle cx="367.1" cy="117.4" r="4" fill="#2563eb" />
<text x="367.1" y="107.4" text-anchor="middle" class="label">0.853</text>
<circle cx="505.7" cy="117.4" r="4" fill="#2563eb" />
<text x="505.7" y="107.4" text-anchor="middle" class="label">0.853</text>
<circle cx="644.3" cy="139.4" r="4" fill="#2563eb" />
<text x="644.3" y="129.4" text-anchor="middle" class="label">0.797</text>
<circle cx="782.9" cy="139.4" r="4" fill="#2563eb" />
<text x="782.9" y="129.4" text-anchor="middle" class="label">0.797</text>
<circle cx="921.4" cy="139.4" r="4" fill="#2563eb" />
<text x="921.4" y="129.4" text-anchor="middle" class="label">0.797</text>
<circle cx="1060.0" cy="60.0" r="4" fill="#2563eb" />
<text x="1060.0" y="50.0" text-anchor="middle" class="label">1.000</text>
<line x1="90" y1="538" x2="108" y2="538" stroke="#2563eb" stroke-width="3" />
<text x="114" y="542" class="label">layer0_cka</text>
<polyline fill="none" stroke="#059669" stroke-width="3" points="90.0,149.6 228.6,141.6 367.1,141.6 505.7,136.9 644.3,158.5 782.9,158.5 921.4,154.3 1060.0,60.0" />
<circle cx="90.0" cy="149.6" r="4" fill="#059669" />
<text x="90.0" y="139.6" text-anchor="middle" class="label">0.770</text>
<circle cx="228.6" cy="141.6" r="4" fill="#059669" />
<text x="228.6" y="131.6" text-anchor="middle" class="label">0.791</text>
<circle cx="367.1" cy="141.6" r="4" fill="#059669" />
<text x="367.1" y="131.6" text-anchor="middle" class="label">0.791</text>
<circle cx="505.7" cy="136.9" r="4" fill="#059669" />
<text x="505.7" y="126.9" text-anchor="middle" class="label">0.803</text>
<circle cx="644.3" cy="158.5" r="4" fill="#059669" />
<text x="644.3" y="148.5" text-anchor="middle" class="label">0.747</text>
<circle cx="782.9" cy="158.5" r="4" fill="#059669" />
<text x="782.9" y="148.5" text-anchor="middle" class="label">0.747</text>
<circle cx="921.4" cy="154.3" r="4" fill="#059669" />
<text x="921.4" y="144.3" text-anchor="middle" class="label">0.758</text>
<circle cx="1060.0" cy="60.0" r="4" fill="#059669" />
<text x="1060.0" y="50.0" text-anchor="middle" class="label">1.000</text>
<line x1="250" y1="538" x2="268" y2="538" stroke="#059669" stroke-width="3" />
<text x="274" y="542" class="label">layer1_cka</text>
<polyline fill="none" stroke="#dc2626" stroke-width="3" points="90.0,194.5 228.6,187.5 367.1,184.8 505.7,182.4 644.3,192.3 782.9,191.0 921.4,188.1 1060.0,60.0" />
<circle cx="90.0" cy="194.5" r="4" fill="#dc2626" />
<text x="90.0" y="184.5" text-anchor="middle" class="label">0.655</text>
<circle cx="228.6" cy="187.5" r="4" fill="#dc2626" />
<text x="228.6" y="177.5" text-anchor="middle" class="label">0.673</text>
<circle cx="367.1" cy="184.8" r="4" fill="#dc2626" />
<text x="367.1" y="174.8" text-anchor="middle" class="label">0.680</text>
<circle cx="505.7" cy="182.4" r="4" fill="#dc2626" />
<text x="505.7" y="172.4" text-anchor="middle" class="label">0.686</text>
<circle cx="644.3" cy="192.3" r="4" fill="#dc2626" />
<text x="644.3" y="182.3" text-anchor="middle" class="label">0.661</text>
<circle cx="782.9" cy="191.0" r="4" fill="#dc2626" />
<text x="782.9" y="181.0" text-anchor="middle" class="label">0.664</text>
<circle cx="921.4" cy="188.1" r="4" fill="#dc2626" />
<text x="921.4" y="178.1" text-anchor="middle" class="label">0.672</text>
<circle cx="1060.0" cy="60.0" r="4" fill="#dc2626" />
<text x="1060.0" y="50.0" text-anchor="middle" class="label">1.000</text>
<line x1="410" y1="538" x2="428" y2="538" stroke="#dc2626" stroke-width="3" />
<text x="434" y="542" class="label">layer2_cka</text>
<polyline fill="none" stroke="#d97706" stroke-width="3" points="90.0,159.6 228.6,152.4 367.1,152.4 505.7,147.2 644.3,162.8 782.9,162.8 921.4,158.4 1060.0,60.0" />
<circle cx="90.0" cy="159.6" r="4" fill="#d97706" />
<text x="90.0" y="149.6" text-anchor="middle" class="label">0.745</text>
<circle cx="228.6" cy="152.4" r="4" fill="#d97706" />
<text x="228.6" y="142.4" text-anchor="middle" class="label">0.763</text>
<circle cx="367.1" cy="152.4" r="4" fill="#d97706" />
<text x="367.1" y="142.4" text-anchor="middle" class="label">0.763</text>
<circle cx="505.7" cy="147.2" r="4" fill="#d97706" />
<text x="505.7" y="137.2" text-anchor="middle" class="label">0.776</text>
<circle cx="644.3" cy="162.8" r="4" fill="#d97706" />
<text x="644.3" y="152.8" text-anchor="middle" class="label">0.736</text>
<circle cx="782.9" cy="162.8" r="4" fill="#d97706" />
<text x="782.9" y="152.8" text-anchor="middle" class="label">0.736</text>
<circle cx="921.4" cy="158.4" r="4" fill="#d97706" />
<text x="921.4" y="148.4" text-anchor="middle" class="label">0.748</text>
<circle cx="1060.0" cy="60.0" r="4" fill="#d97706" />
<text x="1060.0" y="50.0" text-anchor="middle" class="label">1.000</text>
<line x1="570" y1="538" x2="588" y2="538" stroke="#d97706" stroke-width="3" />
<text x="594" y="542" class="label">penultimate_cka</text>
<text x="20" y="255.0" transform="rotate(-90 20,255.0)" class="label">CKA</text>
</svg>